<svg xmlns="http://www.w3.org/2000/svg" width="203" height="50" viewBox="-10 -10 203 50" id="devolo-logo" y="2781"><g transform="matrix(.054 0 0 -.054 0 30)" fill="%233c3f44"><path d="M1632.44 387.668h107.16L1474.79.008h-111.75l-92.87 387.66h118.69l60.5-280.59 183.08 280.59"/><path d="M3320.2 74.93C3301.02 2 3279.15.008 3185.43.008h-323.84c-57.37 0-84.76 24.344-68.87 85.168l62.01 234.828c11.72 44.22 33.73 67.672 100.79 67.672h363.5c54.68 0 76.29-26.403 59.99-88.633L3320.2 74.93zm-144.06-7.832c16.11 0 21.99 4.422 25.74 18.972l55.66 211.11c4.68 17.472.7 20.812-14.05 20.812h-251.53c-16.29 0-21.94-3.36-26.85-22.3l-55.64-210.958c-3.79-14.277-1.16-17.636 15.12-17.636h251.55"/><path d="M2288.36 265.383L2238.28 74.93C2219.1 2 2197.22.008 2103.5.008h-323.97c-57.37 0-84.76 24.344-68.87 85.168l62.27 236.172c10.66 40.2 38.49 66.328 99.13 66.328h364.75c58.38 0 74.5-34.613 61.9-82.73l-10.35-39.563zM2094.21 67.106c16.12 0 21.99 4.425 25.76 18.957l55.65 211.113c4.68 17.48.7 20.82-14.06 20.82H1909.9c-16.31 0-21.94-3.36-26.85-22.3l-55.64-210.973c-3.81-14.266-1.17-17.617 15.12-17.617h251.68"/><path d="M2470.04 77.703l82.4 309.973h-124.32L2340.25 55.3c-7.92-28.32-2.34-56.093 48.28-55.284h345.15l18.06 68.097-274.23-.45c-8.45 0-9.15 3.778-7.47 10.04"/><path d="M540.11 560.965l-45.954-173.36h-321.04c-64.46 0-94.1-21.17-105.698-64.82L4.805 85.34C-9.175 31.922 5.617.016 72.207.016h440.7l147.808 560.95H540.11zm-68.805-258.36l-55.5-211.23c-4.836-18.7-6.887-24.523-24.97-24.523H137.364c-13.57 0-16.386 3.76-12.3 18.507l54.843 208.105c4.82 19.273 8.688 24.53 26.73 24.53h253.07c12.16 0 14.63-4.253 11.6-15.39"/><path d="M1220.48 306.066c12.26 47.457-2.27 81.61-61.38 81.61H801.875c-60.21 0-95.504-18.63-108.164-66.453L631.466 85.36C618.645 36.265 624.387.026 700.293.026h438.457l17.52 67.078H764.664c-14.172 0-17.55 5.09-13.043 21.868l14.943 56.64 411.657-.105 42.26 160.558zm-123.66-8.69l-25.55-97.24H780.836l24.63 93.38c4.905 18.937 11.218 24.48 27.518 24.48h249.006c16.41 0 18.85-5.14 14.83-20.62"/></g></svg>
